<svg width="24" height="24" viewBox="0 0 24 24" fill="none" xmlns="http://www.w3.org/2000/svg">
<path d="M18.75 2.00214H5.25C4.00736 2.00214 3 2.89757 3 4.00214V20.0021C3 21.1067 4.00736 22.0021 5.25 22.0021H18.75C19.9926 22.0021 21 21.1067 21 20.0021V4.00214C21 2.89757 19.9926 2.00214 18.75 2.00214Z" stroke="#B8B8B8" stroke-width="1.6" stroke-linecap="round" stroke-linejoin="round"/>
<path d="M12 18.0021C14.7614 18.0021 17 15.7636 17 13.0021C17 10.2407 14.7614 8.00214 12 8.00214C9.23858 8.00214 7 10.2407 7 13.0021C7 15.7636 9.23858 18.0021 12 18.0021Z" stroke="#B8B8B8" stroke-width="1.6" stroke-linecap="round" stroke-linejoin="round"/>
<path d="M7 5.00214H7.01" stroke="#B8B8B8" stroke-width="1.6" stroke-linecap="round" stroke-linejoin="round"/>
<path d="M10 5.00214H10.01" stroke="#B8B8B8" stroke-width="1.6" stroke-linecap="round" stroke-linejoin="round"/>
<path d="M11.6484 11.0021L10 12.3537" stroke="#B8B8B8" stroke-width="1.6" stroke-linecap="round"/>
</svg>