<svg width="24" height="24" viewBox="0 0 24 24" fill="none" xmlns="http://www.w3.org/2000/svg">
<path d="M2.6 10H4.2C4.41217 10 4.61566 10.0903 4.76569 10.2511C4.91571 10.4118 5 10.6298 5 10.8571V15.1429C5 15.3702 4.91571 15.5882 4.76569 15.7489C4.61566 15.9097 4.41217 16 4.2 16H2.6C2.17565 16 1.76869 15.8194 1.46863 15.4979C1.16857 15.1764 1 14.7404 1 14.2857V11.7143C1 11.2596 1.16857 10.8236 1.46863 10.5021C1.76869 10.1806 2.17565 10 2.6 10V10Z" stroke="white" stroke-width="1.6" stroke-linecap="round" stroke-linejoin="round"/>
<path d="M21.4 16H19.8C19.5878 16 19.3843 15.9097 19.2343 15.7489C19.0843 15.5882 19 15.3702 19 15.1429V10.8571C19 10.6298 19.0843 10.4118 19.2343 10.2511C19.3843 10.0903 19.5878 10 19.8 10H21.4C21.8243 10 22.2313 10.1806 22.5314 10.5021C22.8314 10.8236 23 11.2596 23 11.7143V14.2857C23 14.7404 22.8314 15.1764 22.5314 15.4979C22.2313 15.8194 21.8243 16 21.4 16V16Z" stroke="white" stroke-width="1.6" stroke-linecap="round" stroke-linejoin="round"/>
<path d="M16 21C17.0609 21 18.0783 20.6169 18.8284 19.9349C19.5786 19.253 20 18.3281 20 17.3636V16" stroke="white" stroke-width="1.6" stroke-linecap="round" stroke-linejoin="round"/>
<path d="M13.8125 19C14.3927 19 14.9491 19.2107 15.3593 19.5858C15.7695 19.9609 16 20.4696 16 21C16 21.5304 15.7695 22.0391 15.3593 22.4142C14.9491 22.7893 14.3927 23 13.8125 23H11.1875C10.6073 23 10.0509 22.7893 9.6407 22.4142C9.23047 22.0391 9 21.5304 9 21C9 20.4696 9.23047 19.9609 9.6407 19.5858C10.0509 19.2107 10.6073 19 11.1875 19H13.8125Z" stroke="white" stroke-width="1.6" stroke-linecap="round" stroke-linejoin="round"/>
<path d="M4 10V8.36364C4 6.41068 4.84285 4.53771 6.34315 3.15676C7.84344 1.77581 9.87827 1 12 1C14.1217 1 16.1566 1.77581 17.6569 3.15676C19.1571 4.53771 20 6.41068 20 8.36364V10" stroke="white" stroke-width="1.6" stroke-linecap="round" stroke-linejoin="round"/>
<path d="M9 7V9" stroke="white" stroke-width="1.6" stroke-linecap="round" stroke-linejoin="round"/>
<path d="M15 7V9" stroke="white" stroke-width="1.6" stroke-linecap="round" stroke-linejoin="round"/>
<path d="M9 13C9 15.6667 15 15.6667 15 13" stroke="white" stroke-width="1.6" stroke-linecap="round" stroke-linejoin="round"/>
</svg>
