<svg width="16" height="14" viewBox="0 0 16 14" fill="none" xmlns="http://www.w3.org/2000/svg">
<path d="M13.8936 2.07333C13.5531 1.73267 13.1488 1.46243 12.7038 1.27805C12.2588 1.09368 11.7819 0.998779 11.3002 0.998779C10.8186 0.998779 10.3416 1.09368 9.89667 1.27805C9.4517 1.46243 9.04741 1.73267 8.70691 2.07333L8.00024 2.78L7.29357 2.07333C6.60578 1.38553 5.67293 0.999136 4.70024 0.999136C3.72755 0.999136 2.7947 1.38553 2.10691 2.07333C1.41911 2.76112 1.03271 3.69397 1.03271 4.66666C1.03271 5.63935 1.41911 6.5722 2.10691 7.26L2.81358 7.96666L8.00024 13.1533L13.1869 7.96666L13.8936 7.26C14.2342 6.91949 14.5045 6.51521 14.6889 6.07023C14.8732 5.62526 14.9681 5.14832 14.9681 4.66666C14.9681 4.185 14.8732 3.70807 14.6889 3.26309C14.5045 2.81812 14.2342 2.41383 13.8936 2.07333Z" stroke="#F33571" stroke-width="1.5" stroke-linecap="round" stroke-linejoin="round"/>
</svg>
