<svg width="50" height="50" viewBox="0 0 50 50" fill="none" xmlns="http://www.w3.org/2000/svg">
<path d="M39.0625 4.16663H10.9375C8.34866 4.16663 6.25 6.03211 6.25 8.33329V41.6666C6.25 43.9678 8.34866 45.8333 10.9375 45.8333H39.0625C41.6513 45.8333 43.75 43.9678 43.75 41.6666V8.33329C43.75 6.03211 41.6513 4.16663 39.0625 4.16663Z" stroke="#2F265D" stroke-width="2.2" stroke-linecap="round" stroke-linejoin="round"/>
<path d="M25 39.7221C30.7529 39.7221 35.4166 35.0584 35.4166 29.3055C35.4166 23.5525 30.7529 18.8888 25 18.8888C19.247 18.8888 14.5833 23.5525 14.5833 29.3055C14.5833 35.0584 19.247 39.7221 25 39.7221Z" stroke="#2F265D" stroke-width="2.2" stroke-linecap="round" stroke-linejoin="round"/>
<path d="M13 9H13.0208" stroke="#2F265D" stroke-width="3" stroke-linecap="round" stroke-linejoin="round"/>
<path d="M19.5278 9H19.5487" stroke="#2F265D" stroke-width="3" stroke-linecap="round" stroke-linejoin="round"/>
<path d="M25.0834 9H25.1042" stroke="#2F265D" stroke-width="3" stroke-linecap="round" stroke-linejoin="round"/>
<path d="M25.5555 24.4445L18.8889 29.4824" stroke="#2F265D" stroke-width="2.2" stroke-linecap="round"/>
<path d="M28.9898 26.6666L25.5556 29.4824" stroke="#2F265D" stroke-width="2.2" stroke-linecap="round"/>
<line x1="7.1" y1="12.9" x2="42.9" y2="12.9" stroke="#2F265D" stroke-width="2.2" stroke-linecap="round"/>
</svg>
