<svg width="16" height="16" viewBox="0 0 16 16" fill="none" xmlns="http://www.w3.org/2000/svg">
<path d="M14.75 6C14.7505 5.93031 14.7412 5.86089 14.7225 5.79375L13.825 2.65687C13.7498 2.39637 13.5922 2.16723 13.3759 2.00375C13.1596 1.84027 12.8961 1.75124 12.625 1.75H3.375C3.10386 1.75124 2.84041 1.84027 2.62409 2.00375C2.40777 2.16723 2.25021 2.39637 2.175 2.65687L1.27875 5.79375C1.25962 5.86083 1.24995 5.93025 1.25 6V7C1.24993 7.40526 1.33956 7.80552 1.51245 8.17205C1.68535 8.53858 1.93722 8.86231 2.25 9.12V13.5C2.25 13.6989 2.32902 13.8897 2.46967 14.0303C2.61032 14.171 2.80109 14.25 3 14.25H13C13.1989 14.25 13.3897 14.171 13.5303 14.0303C13.671 13.8897 13.75 13.6989 13.75 13.5V9.12C14.0628 8.86231 14.3147 8.53858 14.4875 8.17205C14.6604 7.80552 14.7501 7.40526 14.75 7V6ZM3.56563 3.25H12.4375L13.0087 5.25H2.99438L3.56563 3.25ZM9.25313 6.75V7C9.25313 7.33152 9.12143 7.64946 8.88701 7.88388C8.65259 8.1183 8.33465 8.25 8.00313 8.25C7.6716 8.25 7.35366 8.1183 7.11924 7.88388C6.88482 7.64946 6.75313 7.33152 6.75313 7V6.75H9.25313ZM3.3125 8.04438C3.13958 7.9305 2.99766 7.77545 2.89947 7.59316C2.80129 7.41087 2.74993 7.20705 2.75 7V6.75H5.25V7C5.25 7.33152 5.1183 7.64946 4.88388 7.88388C4.64946 8.1183 4.33152 8.25 4 8.25C3.80277 8.25009 3.60839 8.20294 3.43313 8.1125C3.3952 8.08597 3.3548 8.06316 3.3125 8.04438ZM12.25 12.75H3.75V9.73812C3.8325 9.74563 3.91563 9.75 4 9.75C4.37484 9.75012 4.74572 9.67336 5.08972 9.52448C5.43372 9.37559 5.74353 9.15773 6 8.88437C6.25654 9.15766 6.56636 9.37547 6.91034 9.52436C7.25432 9.67325 7.62517 9.75007 8 9.75007C8.37483 9.75007 8.74568 9.67325 9.08966 9.52436C9.43364 9.37547 9.74346 9.15766 10 8.88437C10.2565 9.15773 10.5663 9.37559 10.9103 9.52448C11.2543 9.67336 11.6252 9.75012 12 9.75C12.0844 9.75 12.1675 9.74563 12.25 9.73812V12.75ZM13.25 7C13.2501 7.20705 13.1987 7.41087 13.1005 7.59316C13.0023 7.77545 12.8604 7.9305 12.6875 8.04438C12.6463 8.06338 12.607 8.08618 12.57 8.1125C12.3794 8.21014 12.167 8.25719 11.953 8.24914C11.7391 8.2411 11.5308 8.17823 11.3481 8.06656C11.1654 7.95488 11.0144 7.79816 10.9097 7.6114C10.805 7.42464 10.75 7.21412 10.75 7V6.75H13.25V7Z" fill="#0A9EE8"/>
</svg>
