<svg width="24" height="24" viewBox="0 0 24 24" fill="none" xmlns="http://www.w3.org/2000/svg">
<rect width="24" height="24" rx="12" fill="#2F265D"/>
<path d="M12.7627 8.15297C12.7754 8.10538 12.7974 8.06076 12.8274 8.02167C12.8573 7.98258 12.8947 7.94977 12.9374 7.92513C12.98 7.9005 13.0271 7.8845 13.076 7.87807C13.1248 7.87164 13.1745 7.8749 13.222 7.88766C13.9172 8.06904 14.5515 8.43246 15.0595 8.94049C15.5675 9.44851 15.931 10.0828 16.1123 10.778C16.1251 10.8256 16.1284 10.8752 16.1219 10.924C16.1155 10.9729 16.0995 11.02 16.0749 11.0626C16.0502 11.1053 16.0174 11.1427 15.9783 11.1727C15.9392 11.2026 15.8946 11.2246 15.847 11.2373C15.8154 11.2457 15.7828 11.2499 15.75 11.25C15.6674 11.25 15.5872 11.2228 15.5216 11.1725C15.4561 11.1223 15.409 11.0518 15.3877 10.972C15.2398 10.4044 14.9432 9.88655 14.5285 9.47177C14.1138 9.05699 13.596 8.76032 13.0284 8.61234C12.9808 8.59967 12.9361 8.57772 12.897 8.54776C12.8579 8.51781 12.825 8.48043 12.8003 8.43776C12.7756 8.39509 12.7596 8.34798 12.7531 8.29911C12.7467 8.25025 12.7499 8.20058 12.7627 8.15297ZM12.6534 10.1123C13.2998 10.2848 13.7152 10.7006 13.8877 11.347C13.909 11.4268 13.9561 11.4973 14.0216 11.5475C14.0872 11.5978 14.1674 11.625 14.25 11.625C14.2828 11.6249 14.3154 11.6207 14.347 11.6123C14.3946 11.5996 14.4392 11.5776 14.4783 11.5477C14.5174 11.5177 14.5502 11.4803 14.5749 11.4376C14.5995 11.395 14.6155 11.3479 14.6219 11.299C14.6284 11.2502 14.6251 11.2006 14.6123 11.153C14.3723 10.2548 13.7452 9.62766 12.847 9.38766C12.7509 9.36198 12.6486 9.37554 12.5625 9.42534C12.4764 9.47514 12.4136 9.5571 12.3879 9.6532C12.3622 9.7493 12.3758 9.85167 12.4256 9.93777C12.4754 10.0239 12.5573 10.0867 12.6534 10.1123ZM16.0486 13.8028L13.8403 12.8133L13.8342 12.8105C13.7196 12.7614 13.5945 12.7418 13.4704 12.7532C13.3462 12.7647 13.2269 12.8069 13.1231 12.8761C13.1109 12.8842 13.0992 12.8929 13.088 12.9023L11.947 13.875C11.2242 13.5239 10.478 12.7833 10.1269 12.0698L11.1009 10.9116C11.1103 10.8998 11.1192 10.8881 11.1277 10.8755C11.1954 10.772 11.2364 10.6534 11.2472 10.5303C11.258 10.4071 11.2382 10.2832 11.1895 10.1695V10.1639L10.1972 7.95188C10.1329 7.80341 10.0222 7.67973 9.88181 7.5993C9.7414 7.51887 9.57875 7.48601 9.41813 7.50563C8.78296 7.58921 8.19993 7.90114 7.77794 8.38317C7.35595 8.8652 7.12386 9.48436 7.125 10.125C7.125 13.8469 10.1531 16.875 13.875 16.875C14.5156 16.8761 15.1348 16.6441 15.6168 16.2221C16.0989 15.8001 16.4108 15.217 16.4944 14.5819C16.514 14.4213 16.4812 14.2587 16.4009 14.1183C16.3206 13.9779 16.197 13.8672 16.0486 13.8028Z" fill="white"/>
</svg>
