<svg width="25" height="24" viewBox="0 0 25 24" fill="none" xmlns="http://www.w3.org/2000/svg">
<g clip-path="url(#clip0_2001_8222)">
<path d="M17.1187 0C17.1746 0 17.2304 0 17.2894 0C17.4264 1.69253 16.7804 2.95719 15.9953 3.87301C15.2249 4.78251 14.17 5.6646 12.4637 5.53076C12.3499 3.86247 12.997 2.69161 13.7811 1.77789C14.5083 0.92636 15.8414 0.168621 17.1187 0Z" fill="black"/>
<path d="M22.2836 17.6169C22.2836 17.6337 22.2836 17.6485 22.2836 17.6643C21.8041 19.1165 21.1201 20.3612 20.2855 21.5162C19.5235 22.5648 18.5898 23.976 16.9225 23.976C15.4819 23.976 14.525 23.0496 13.0485 23.0243C11.4866 22.999 10.6277 23.7989 9.1997 24.0002C9.03635 24.0002 8.873 24.0002 8.71281 24.0002C7.6642 23.8485 6.81793 23.018 6.20141 22.2698C4.38347 20.0587 2.97865 17.2027 2.71729 13.5478C2.71729 13.1895 2.71729 12.8323 2.71729 12.4739C2.82794 9.85821 4.09892 7.73148 5.78829 6.70079C6.67987 6.15277 7.90553 5.6859 9.27031 5.89457C9.85521 5.9852 10.4528 6.18544 10.9765 6.38357C11.4729 6.57432 12.0937 6.91262 12.6817 6.8947C13.0801 6.88311 13.4763 6.67549 13.8779 6.529C15.054 6.10429 16.2069 5.6174 17.7266 5.84609C19.553 6.12221 20.8493 6.93369 21.6502 8.1857C20.1052 9.16897 18.8838 10.6507 19.0925 13.1811C19.278 15.4796 20.6143 16.8244 22.2836 17.6169Z" fill="black"/>
</g>
<defs>
<clipPath id="clip0_2001_8222">
<rect width="24" height="24" fill="white" transform="translate(0.5)"/>
</clipPath>
</defs>
</svg>
