<svg width="24" height="24" viewBox="0 0 24 24" fill="none" xmlns="http://www.w3.org/2000/svg">
<g clip-path="url(#clip0_2003_5380)">
<path d="M18.24 2.64H5.76C5.47228 2.6479 5.19046 2.7234 4.93732 2.86039C4.68419 2.99738 4.46684 3.19202 4.30286 3.42857L1.18286 7.74857C0.951184 8.07596 0.835484 8.47134 0.854118 8.87197C0.872752 9.2726 1.02465 9.65553 1.28572 9.96L10.6457 20.7429C10.806 20.9493 11.0113 21.1164 11.246 21.2314C11.4807 21.3463 11.7386 21.4061 12 21.4061C12.2614 21.4061 12.5193 21.3463 12.754 21.2314C12.9887 21.1164 13.194 20.9493 13.3543 20.7429L22.7143 9.96C22.9754 9.65553 23.1273 9.2726 23.1459 8.87197C23.1645 8.47134 23.0488 8.07596 22.8171 7.74857L19.6971 3.42857C19.5332 3.19202 19.3158 2.99738 19.0627 2.86039C18.8095 2.7234 18.5277 2.6479 18.24 2.64V2.64Z" stroke="#FEA31B" stroke-width="2" stroke-linecap="round" stroke-linejoin="round"/>
<path d="M11.1086 2.62286L6.92572 9.10286L12 21.36" stroke="#FEA31B" stroke-width="2" stroke-linecap="round" stroke-linejoin="round"/>
<path d="M12.9429 2.62286L17.1086 9.10286L12 21.36" stroke="#FEA31B" stroke-width="2" stroke-linecap="round" stroke-linejoin="round"/>
<path d="M0.891418 9.10286H23.1086" stroke="#FEA31B" stroke-width="2" stroke-linecap="round" stroke-linejoin="round"/>
</g>
<defs>
<clipPath id="clip0_2003_5380">
<rect width="24" height="24" fill="white"/>
</clipPath>
</defs>
</svg>
