<svg width="15" height="15" viewBox="0 0 15 15" fill="none" xmlns="http://www.w3.org/2000/svg">
<path d="M7.03125 6.04687V10.3125C7.03125 10.4368 7.08064 10.556 7.16854 10.644C7.25645 10.7319 7.37568 10.7812 7.5 10.7812C7.62432 10.7812 7.74355 10.7319 7.83146 10.644C7.91936 10.556 7.96875 10.4368 7.96875 10.3125V6.04687C8.53783 5.93071 9.04351 5.60738 9.38775 5.13956C9.73199 4.67175 9.89026 4.09278 9.83188 3.5149C9.7735 2.93703 9.50264 2.40141 9.07179 2.0119C8.64095 1.62239 8.08082 1.40672 7.5 1.40672C6.91918 1.40672 6.35905 1.62239 5.92821 2.0119C5.49736 2.40141 5.2265 2.93703 5.16812 3.5149C5.10974 4.09278 5.26801 4.67175 5.61225 5.13956C5.95649 5.60738 6.46217 5.93071 7.03125 6.04687ZM7.5 2.34374C7.77813 2.34374 8.05001 2.42622 8.28127 2.58074C8.51253 2.73526 8.69277 2.95489 8.79921 3.21185C8.90564 3.4688 8.93349 3.75155 8.87923 4.02434C8.82497 4.29713 8.69104 4.5477 8.49437 4.74436C8.2977 4.94103 8.04713 5.07496 7.77435 5.12922C7.50156 5.18348 7.21881 5.15564 6.96185 5.0492C6.70489 4.94276 6.48527 4.76252 6.33075 4.53127C6.17623 4.30001 6.09375 4.02812 6.09375 3.74999C6.09375 3.37703 6.24191 3.01935 6.50563 2.75563C6.76935 2.4919 7.12704 2.34374 7.5 2.34374ZM14.0625 10.3125C14.0625 12.1394 10.6811 13.125 7.5 13.125C4.31895 13.125 0.9375 12.1394 0.9375 10.3125C0.9375 9.85898 1.16074 9.1916 2.22656 8.58925C2.94492 8.18261 3.93281 7.87031 5.08418 7.68574C5.14508 7.67612 5.20728 7.67859 5.26723 7.69301C5.32718 7.70743 5.3837 7.73352 5.43357 7.76978C5.48343 7.80605 5.52567 7.85178 5.55786 7.90436C5.59005 7.95695 5.61157 8.01536 5.62119 8.07626C5.63081 8.13717 5.62834 8.19937 5.61392 8.25932C5.5995 8.31926 5.57341 8.37578 5.53715 8.42565C5.50088 8.47552 5.45515 8.51775 5.40257 8.54994C5.34998 8.58214 5.29157 8.60366 5.23066 8.61328C4.20293 8.77851 3.29707 9.06035 2.68652 9.40722C2.1709 9.69726 1.875 10.0277 1.875 10.3125C1.875 11.0953 4.01484 12.1875 7.5 12.1875C10.9852 12.1875 13.125 11.0953 13.125 10.3125C13.125 10.0277 12.8291 9.69726 12.3135 9.40488C11.7006 9.058 10.7971 8.77617 9.76934 8.61093C9.70714 8.60281 9.64721 8.58228 9.59309 8.55057C9.53897 8.51886 9.49176 8.47662 9.45427 8.42633C9.41677 8.37605 9.38975 8.31875 9.3748 8.25783C9.35986 8.19691 9.35729 8.13361 9.36725 8.07168C9.37721 8.00976 9.3995 7.95045 9.4328 7.8973C9.4661 7.84414 9.50972 7.79821 9.5611 7.76222C9.61247 7.72623 9.67054 7.70091 9.73188 7.68778C9.79321 7.67464 9.85656 7.67395 9.91816 7.68574C11.0695 7.87031 12.0574 8.18261 12.7758 8.58925C13.8393 9.1916 14.0625 9.85898 14.0625 10.3125Z" fill="#888888"/>
</svg>
