<svg width="28" height="29" viewBox="0 0 28 29" fill="none" xmlns="http://www.w3.org/2000/svg">
<rect y="0.5" width="28" height="28" rx="14" fill="#F33571"/>
<g clip-path="url(#clip0_2001_6788)">
<path d="M21.0033 12.8759C21.0033 17.2519 14.5149 20.794 14.2386 20.9403C14.1658 20.9795 14.0843 21 14.0016 21C13.919 21 13.8375 20.9795 13.7647 20.9403C13.4884 20.794 7 17.2519 7 12.8759C7.00116 11.8483 7.40988 10.8631 8.13651 10.1365C8.86313 9.40988 9.84831 9.00116 10.8759 9C12.1668 9 13.2971 9.55513 14.0016 10.4935C14.7062 9.55513 15.8365 9 17.1274 9C18.155 9.00116 19.1402 9.40988 19.8668 10.1365C20.5934 10.8631 21.0021 11.8483 21.0033 12.8759Z" fill="white"/>
</g>
<defs>
<clipPath id="clip0_2001_6788">
<rect width="15" height="15" fill="white" transform="translate(6.5 7)"/>
</clipPath>
</defs>
</svg>
