<svg width="38" height="38" viewBox="0 0 38 38" fill="none" xmlns="http://www.w3.org/2000/svg">
<rect x="0.5" y="0.5" width="37" height="37" rx="4.5" stroke="#2F265D"/>
<path d="M14.7697 10.0417H11.9329C11.4313 10.0417 10.9503 10.2409 10.5956 10.5956C10.2409 10.9502 10.0417 11.4313 10.0417 11.9329V14.7697M27.0625 14.7697V11.9329C27.0625 11.4313 26.8633 10.9502 26.5086 10.5956C26.1539 10.2409 25.6729 10.0417 25.1713 10.0417H22.3345M22.3345 27.0625H25.1713C25.6729 27.0625 26.1539 26.8632 26.5086 26.5086C26.8633 26.1539 27.0625 25.6729 27.0625 25.1713V22.3345M10.0417 22.3345V25.1713C10.0417 25.6729 10.2409 26.1539 10.5956 26.5086C10.9503 26.8632 11.4313 27.0625 11.9329 27.0625H14.7697" stroke="#2F265D" stroke-width="1.6" stroke-linecap="round" stroke-linejoin="round"/>
<path d="M17.2083 13.625H13.625V17.2083H17.2083V13.625Z" stroke="#2F265D" stroke-width="1.6" stroke-linecap="round" stroke-linejoin="round"/>
<path d="M23.4791 13.625H19.8958V17.2083H23.4791V13.625Z" stroke="#2F265D" stroke-width="1.6" stroke-linecap="round" stroke-linejoin="round"/>
<path d="M17.2083 20.7917H13.625V24.375H17.2083V20.7917Z" stroke="#2F265D" stroke-width="1.6" stroke-linecap="round" stroke-linejoin="round"/>
<path d="M19.8958 20.7917V23.4792" stroke="#2F265D" stroke-width="1.6" stroke-linecap="round" stroke-linejoin="round"/>
<path d="M23.4792 23.4792H23.0313" stroke="#2F265D" stroke-width="1.6" stroke-linecap="round" stroke-linejoin="round"/>
<path d="M23.4792 20.7917H23.0313" stroke="#2F265D" stroke-width="1.6" stroke-linecap="round" stroke-linejoin="round"/>
</svg>
