<svg width="24" height="24" viewBox="0 0 24 24" fill="none" xmlns="http://www.w3.org/2000/svg">
<path d="M19.5 4.50005C18.3586 4.49902 17.2295 4.73627 16.185 5.19661C14.7694 2.81817 12.4425 1.63411 12.3356 1.5788C12.2314 1.52666 12.1165 1.49951 12 1.49951C11.8835 1.49951 11.7686 1.52666 11.6644 1.5788C11.5575 1.63317 9.22688 2.81817 7.815 5.19661C6.77051 4.73627 5.64143 4.49902 4.5 4.50005C4.30109 4.50005 4.11032 4.57907 3.96967 4.71972C3.82902 4.86037 3.75 5.05114 3.75 5.25005V9.00005C3.75247 11.0575 4.52267 13.0399 5.90984 14.5594C7.29701 16.0789 9.2013 17.026 11.25 17.2154V20.5369L7.83563 18.8288C7.74748 18.7847 7.65151 18.7584 7.5532 18.7515C7.45489 18.7445 7.35617 18.7569 7.26268 18.7881C7.16918 18.8192 7.08274 18.8685 7.00828 18.9331C6.93383 18.9977 6.87282 19.0763 6.82875 19.1644C6.78467 19.2526 6.75839 19.3485 6.75141 19.4468C6.74442 19.5452 6.75687 19.6439 6.78803 19.7374C6.8192 19.8309 6.86847 19.9173 6.93305 19.9918C6.99762 20.0662 7.07623 20.1272 7.16437 20.1713L11.6644 22.4213C11.7686 22.4734 11.8835 22.5006 12 22.5006C12.1165 22.5006 12.2314 22.4734 12.3356 22.4213L16.8356 20.1713C17.0137 20.0823 17.149 19.9262 17.212 19.7374C17.2749 19.5485 17.2603 19.3424 17.1713 19.1644C17.0822 18.9864 16.9261 18.851 16.7373 18.7881C16.5485 18.7251 16.3424 18.7398 16.1644 18.8288L12.75 20.5369V17.2154C14.7987 17.026 16.703 16.0789 18.0902 14.5594C19.4773 13.0399 20.2475 11.0575 20.25 9.00005V5.25005C20.25 5.05114 20.171 4.86037 20.0303 4.71972C19.8897 4.57907 19.6989 4.50005 19.5 4.50005ZM11.25 15.7088C9.60065 15.5223 8.07757 14.7355 6.97105 13.4983C5.86452 12.261 5.25192 10.6599 5.25 9.00005V6.0413C6.89935 6.22777 8.42243 7.01461 9.52895 8.25184C10.6355 9.48907 11.2481 11.0902 11.25 12.75V15.7088ZM12 9.31505C11.3691 7.9443 10.3759 6.77183 9.1275 5.92411C10.0247 4.4438 11.3775 3.49599 12 3.11161C12.6234 3.49411 13.9762 4.44192 14.8725 5.92411C13.6243 6.77205 12.6312 7.94446 12 9.31505ZM18.75 9.00005C18.7481 10.6599 18.1355 12.261 17.029 13.4983C15.9224 14.7355 14.3994 15.5223 12.75 15.7088V12.75C12.7519 11.0902 13.3645 9.48907 14.471 8.25184C15.5776 7.01461 17.1006 6.22777 18.75 6.0413V9.00005Z" fill="#222222"/>
</svg>
