<svg width="24" height="25" viewBox="0 0 24 25" fill="none" xmlns="http://www.w3.org/2000/svg">
<path d="M21 7.16552C20.8235 7.25695 20.6178 7.27453 20.4283 7.21441C20.2388 7.15429 20.0809 7.02138 19.9894 6.8449C19.2735 5.43067 18.1899 4.23537 16.8525 3.38459C16.7692 3.33202 16.697 3.26355 16.6401 3.18308C16.5832 3.10262 16.5427 3.01174 16.521 2.91563C16.4992 2.81952 16.4966 2.72007 16.5133 2.62294C16.5299 2.52582 16.5656 2.43294 16.6181 2.34959C16.6707 2.26624 16.7392 2.19406 16.8196 2.13717C16.9001 2.08029 16.991 2.03981 17.0871 2.01804C17.1832 1.99628 17.2827 1.99366 17.3798 2.01033C17.4769 2.027 17.5698 2.06264 17.6531 2.11521C19.2118 3.11321 20.4775 4.5073 21.3206 6.1549C21.4121 6.33145 21.4296 6.53707 21.3695 6.72658C21.3094 6.91609 21.1765 7.07397 21 7.16552ZM3.34783 7.2499C3.48523 7.24984 3.61998 7.21204 3.73736 7.14062C3.85474 7.0692 3.95025 6.9669 4.01346 6.8449C4.72933 5.43067 5.81291 4.23537 7.15033 3.38459C7.31866 3.27842 7.43792 3.10973 7.48187 2.91563C7.52583 2.72153 7.49087 2.51792 7.38471 2.34959C7.27854 2.18126 7.10985 2.062 6.91575 2.01804C6.72165 1.97409 6.51804 2.00904 6.34971 2.11521C4.79102 3.11321 3.52537 4.5073 2.68221 6.1549C2.62299 6.2692 2.59419 6.39682 2.59858 6.52547C2.60297 6.65412 2.6404 6.77948 2.70726 6.88948C2.77413 6.99948 2.86818 7.09041 2.98037 7.15354C3.09256 7.21666 3.2191 7.24985 3.34783 7.2499ZM20.7947 16.9943C20.9276 17.2221 20.998 17.481 20.9989 17.7448C20.9998 18.0085 20.9312 18.2679 20.7999 18.4966C20.6686 18.7254 20.4793 18.9155 20.251 19.0477C20.0228 19.18 19.7638 19.2497 19.5 19.2499H15.675C15.5029 20.0976 15.043 20.8598 14.3732 21.4072C13.7035 21.9546 12.865 22.2537 12 22.2537C11.135 22.2537 10.2966 21.9546 9.62682 21.4072C8.95707 20.8598 8.49715 20.0976 8.32502 19.2499H4.50002C4.23641 19.2494 3.9776 19.1794 3.74965 19.047C3.5217 18.9146 3.33266 18.7245 3.20158 18.4958C3.0705 18.2671 3.002 18.0079 3.00299 17.7443C3.00398 17.4807 3.07441 17.222 3.20721 16.9943C4.05189 15.5365 4.50002 13.4636 4.50002 10.9999C4.50002 9.01078 5.29019 7.10312 6.69672 5.6966C8.10324 4.29008 10.0109 3.4999 12 3.4999C13.9891 3.4999 15.8968 4.29008 17.3033 5.6966C18.7098 7.10312 19.5 9.01078 19.5 10.9999C19.5 13.4627 19.9481 15.5355 20.7947 16.9943ZM14.1206 19.2499H9.87939C10.0348 19.6881 10.3221 20.0674 10.7018 20.3357C11.0816 20.6039 11.5351 20.7479 12 20.7479C12.465 20.7479 12.9185 20.6039 13.2982 20.3357C13.6779 20.0674 13.9653 19.6881 14.1206 19.2499ZM19.5 17.7499C18.5025 16.0371 18 13.7665 18 10.9999C18 9.4086 17.3679 7.88248 16.2427 6.75726C15.1174 5.63204 13.5913 4.9999 12 4.9999C10.4087 4.9999 8.8826 5.63204 7.75738 6.75726C6.63216 7.88248 6.00002 9.4086 6.00002 10.9999C6.00002 13.7674 5.49564 16.038 4.50002 17.7499H19.5Z" fill="#222222"/>
</svg>
