<svg width="24" height="25" viewBox="0 0 24 25" fill="none" xmlns="http://www.w3.org/2000/svg">
<path d="M12.75 8.00003V12.0753L16.1363 14.1069C16.3068 14.2093 16.4297 14.3753 16.4779 14.5684C16.5261 14.7614 16.4956 14.9657 16.3931 15.1363C16.2907 15.3068 16.1247 15.4297 15.9316 15.4779C15.7386 15.5261 15.5343 15.4956 15.3638 15.3932L11.6138 13.1432C11.5028 13.0765 11.4109 12.9822 11.3472 12.8695C11.2834 12.7568 11.25 12.6295 11.25 12.5V8.00003C11.25 7.80112 11.329 7.61035 11.4697 7.4697C11.6103 7.32905 11.8011 7.25003 12 7.25003C12.1989 7.25003 12.3897 7.32905 12.5303 7.4697C12.671 7.61035 12.75 7.80112 12.75 8.00003ZM12 3.50003C10.8169 3.49708 9.64491 3.72881 8.55193 4.1818C7.45895 4.6348 6.46667 5.30006 5.6325 6.13909C4.95094 6.82909 4.34531 7.49284 3.75 8.18753V6.50003C3.75 6.30112 3.67098 6.11035 3.53033 5.9697C3.38968 5.82905 3.19891 5.75003 3 5.75003C2.80109 5.75003 2.61032 5.82905 2.46967 5.9697C2.32902 6.11035 2.25 6.30112 2.25 6.50003V10.25C2.25 10.4489 2.32902 10.6397 2.46967 10.7804C2.61032 10.921 2.80109 11 3 11H6.75C6.94891 11 7.13968 10.921 7.28033 10.7804C7.42098 10.6397 7.5 10.4489 7.5 10.25C7.5 10.0511 7.42098 9.86035 7.28033 9.7197C7.13968 9.57905 6.94891 9.50003 6.75 9.50003H4.59375C5.26406 8.71065 5.93156 7.96722 6.69281 7.19659C7.73518 6.15423 9.0616 5.44216 10.5063 5.14935C11.9511 4.85654 13.4501 4.99598 14.816 5.55023C16.182 6.10449 17.3543 7.04899 18.1866 8.26572C19.0188 9.48245 19.474 10.9175 19.4953 12.3914C19.5166 13.8654 19.1031 15.313 18.3064 16.5532C17.5098 17.7935 16.3652 18.7716 15.0159 19.3651C13.6665 19.9586 12.1722 20.1414 10.7196 19.8905C9.26698 19.6396 7.92052 18.9662 6.84844 17.9544C6.77679 17.8867 6.6925 17.8338 6.60039 17.7986C6.50828 17.7635 6.41015 17.7468 6.3116 17.7496C6.21305 17.7524 6.11602 17.7746 6.02604 17.8149C5.93606 17.8551 5.8549 17.9128 5.78719 17.9844C5.71947 18.0561 5.66654 18.1403 5.6314 18.2325C5.59626 18.3246 5.57961 18.4227 5.5824 18.5212C5.58518 18.6198 5.60735 18.7168 5.64764 18.8068C5.68792 18.8968 5.74554 18.9779 5.81719 19.0457C6.88542 20.0537 8.18414 20.785 9.6 21.1757C11.0159 21.5665 12.5058 21.6047 13.9399 21.2872C15.3739 20.9696 16.7085 20.306 17.827 19.354C18.9456 18.4021 19.8142 17.1909 20.357 15.8261C20.8998 14.4613 21.1003 12.9844 20.9411 11.5243C20.7818 10.0641 20.2677 8.66517 19.4434 7.44947C18.6192 6.23376 17.5099 5.23825 16.2125 4.54982C14.915 3.8614 13.4688 3.50098 12 3.50003Z" fill="#222222"/>
</svg>
