<svg width="24" height="25" viewBox="0 0 24 25" fill="none" xmlns="http://www.w3.org/2000/svg">
<path d="M3 6.5C3 6.30109 3.07902 6.11032 3.21967 5.96967C3.36032 5.82902 3.55109 5.75 3.75 5.75H20.25C20.4489 5.75 20.6397 5.82902 20.7803 5.96967C20.921 6.11032 21 6.30109 21 6.5C21 6.69891 20.921 6.88968 20.7803 7.03033C20.6397 7.17098 20.4489 7.25 20.25 7.25H3.75C3.55109 7.25 3.36032 7.17098 3.21967 7.03033C3.07902 6.88968 3 6.69891 3 6.5ZM3.75 13.25H9C9.19891 13.25 9.38968 13.171 9.53033 13.0303C9.67098 12.8897 9.75 12.6989 9.75 12.5C9.75 12.3011 9.67098 12.1103 9.53033 11.9697C9.38968 11.829 9.19891 11.75 9 11.75H3.75C3.55109 11.75 3.36032 11.829 3.21967 11.9697C3.07902 12.1103 3 12.3011 3 12.5C3 12.6989 3.07902 12.8897 3.21967 13.0303C3.36032 13.171 3.55109 13.25 3.75 13.25ZM10.5 17.75H3.75C3.55109 17.75 3.36032 17.829 3.21967 17.9697C3.07902 18.1103 3 18.3011 3 18.5C3 18.6989 3.07902 18.8897 3.21967 19.0303C3.36032 19.171 3.55109 19.25 3.75 19.25H10.5C10.6989 19.25 10.8897 19.171 11.0303 19.0303C11.171 18.8897 11.25 18.6989 11.25 18.5C11.25 18.3011 11.171 18.1103 11.0303 17.9697C10.8897 17.829 10.6989 17.75 10.5 17.75ZM22.2272 13.9794L20.1159 15.7222L20.7591 18.32C20.7943 18.4632 20.7866 18.6137 20.7367 18.7525C20.6869 18.8914 20.5973 19.0124 20.479 19.1006C20.3607 19.1887 20.2191 19.2401 20.0718 19.2481C19.9245 19.2562 19.7781 19.2206 19.6509 19.1459L17.25 17.7331L14.8491 19.1459C14.7219 19.2206 14.5755 19.2562 14.4282 19.2481C14.2809 19.2401 14.1393 19.1887 14.021 19.1006C13.9027 19.0124 13.8131 18.8914 13.7633 18.7525C13.7135 18.6137 13.7057 18.4632 13.7409 18.32L14.3831 15.7222L12.2728 13.9794C12.1577 13.8842 12.0737 13.7568 12.0314 13.6136C11.9892 13.4703 11.9907 13.3178 12.0357 13.1754C12.0807 13.033 12.1672 12.9073 12.2841 12.8143C12.401 12.7214 12.543 12.6655 12.6919 12.6537L15.4894 12.4372L16.5609 9.95281C16.6188 9.81808 16.715 9.70327 16.8374 9.6226C16.9599 9.54194 17.1034 9.49894 17.25 9.49894C17.3967 9.49894 17.5401 9.54194 17.6626 9.6226C17.785 9.70327 17.8812 9.81808 17.9391 9.95281L19.0106 12.4372L21.8081 12.6537C21.957 12.6655 22.099 12.7214 22.2159 12.8143C22.3328 12.9073 22.4193 13.033 22.4643 13.1754C22.5093 13.3178 22.5108 13.4703 22.4686 13.6136C22.4263 13.7568 22.3423 13.8842 22.2272 13.9794ZM19.8394 14.0056L18.4434 13.8978C18.3073 13.8874 18.1765 13.8399 18.0653 13.7606C17.9542 13.6813 17.8667 13.5732 17.8125 13.4478L17.25 12.1428L16.6875 13.4478C16.6333 13.5732 16.5458 13.6813 16.4347 13.7606C16.3235 13.8399 16.1927 13.8874 16.0566 13.8978L14.6606 14.0056L15.7022 14.8663C15.8113 14.9561 15.8928 15.075 15.9372 15.2092C15.9817 15.3434 15.9873 15.4874 15.9534 15.6247L15.6253 16.9484L16.8694 16.2162C16.9847 16.1483 17.1161 16.1125 17.25 16.1125C17.3839 16.1125 17.5153 16.1483 17.6306 16.2162L18.8747 16.9484L18.5466 15.6247C18.5127 15.4874 18.5183 15.3434 18.5628 15.2092C18.6072 15.075 18.6887 14.9561 18.7978 14.8663L19.8394 14.0056Z" fill="#222222"/>
</svg>
