<svg width="24" height="25" viewBox="0 0 24 25" fill="none" xmlns="http://www.w3.org/2000/svg">
<path d="M11.25 17H10.5V16.625C10.5 15.9288 10.2234 15.2611 9.73116 14.7688C9.23887 14.2766 8.57119 14 7.875 14C7.17881 14 6.51113 14.2766 6.01884 14.7688C5.52656 15.2611 5.25 15.9288 5.25 16.625V17H4.5C4.30109 17 4.11032 17.079 3.96967 17.2197C3.82902 17.3603 3.75 17.5511 3.75 17.75V21.5C3.75 21.6989 3.82902 21.8897 3.96967 22.0303C4.11032 22.171 4.30109 22.25 4.5 22.25H11.25C11.4489 22.25 11.6397 22.171 11.7803 22.0303C11.921 21.8897 12 21.6989 12 21.5V17.75C12 17.5511 11.921 17.3603 11.7803 17.2197C11.6397 17.079 11.4489 17 11.25 17ZM6.75 16.625C6.75 16.3266 6.86853 16.0405 7.0795 15.8295C7.29048 15.6185 7.57663 15.5 7.875 15.5C8.17337 15.5 8.45952 15.6185 8.6705 15.8295C8.88147 16.0405 9 16.3266 9 16.625V17H6.75V16.625ZM10.5 20.75H5.25V18.5H10.5V20.75ZM20.0306 8.21938L14.7806 2.96938C14.7109 2.89975 14.6282 2.84454 14.5371 2.8069C14.4461 2.76926 14.3485 2.74992 14.25 2.75H5.25C4.85218 2.75 4.47064 2.90804 4.18934 3.18934C3.90804 3.47064 3.75 3.85218 3.75 4.25V12.5C3.75 12.6989 3.82902 12.8897 3.96967 13.0303C4.11032 13.171 4.30109 13.25 4.5 13.25C4.69891 13.25 4.88968 13.171 5.03033 13.0303C5.17098 12.8897 5.25 12.6989 5.25 12.5V4.25H13.5V8.75C13.5 8.94891 13.579 9.13968 13.7197 9.28033C13.8603 9.42098 14.0511 9.5 14.25 9.5H18.75V20.75H15C14.8011 20.75 14.6103 20.829 14.4697 20.9697C14.329 21.1103 14.25 21.3011 14.25 21.5C14.25 21.6989 14.329 21.8897 14.4697 22.0303C14.6103 22.171 14.8011 22.25 15 22.25H18.75C19.1478 22.25 19.5294 22.092 19.8107 21.8107C20.092 21.5294 20.25 21.1478 20.25 20.75V8.75C20.2501 8.65148 20.2307 8.55391 20.1931 8.46286C20.1555 8.37182 20.1003 8.28908 20.0306 8.21938ZM15 5.31031L17.6897 8H15V5.31031Z" fill="#222222"/>
</svg>
