<svg width="24" height="25" viewBox="0 0 24 25" fill="none" xmlns="http://www.w3.org/2000/svg">
<path d="M17.25 8.89719V8.375C17.25 6.02375 13.7034 4.25 9 4.25C4.29656 4.25 0.75 6.02375 0.75 8.375V12.125C0.75 14.0834 3.21094 15.6397 6.75 16.1056V16.625C6.75 18.9762 10.2966 20.75 15 20.75C19.7034 20.75 23.25 18.9762 23.25 16.625V12.875C23.25 10.9344 20.8669 9.37625 17.25 8.89719ZM21.75 12.875C21.75 14.1144 18.8634 15.5 15 15.5C14.6503 15.5 14.3034 15.4878 13.9613 15.4653C15.9834 14.7284 17.25 13.5312 17.25 12.125V10.4131C20.0503 10.8303 21.75 11.9628 21.75 12.875ZM6.75 14.5859V12.3556C7.49604 12.4528 8.24765 12.5011 9 12.5C9.75235 12.5011 10.504 12.4528 11.25 12.3556V14.5859C10.5051 14.696 9.75302 14.7508 9 14.75C8.24698 14.7508 7.49493 14.696 6.75 14.5859ZM15.75 10.8059V12.125C15.75 12.9116 14.5866 13.7562 12.75 14.2691V12.0781C13.9603 11.7847 14.985 11.3478 15.75 10.8059ZM9 5.75C12.8634 5.75 15.75 7.13562 15.75 8.375C15.75 9.61438 12.8634 11 9 11C5.13656 11 2.25 9.61438 2.25 8.375C2.25 7.13562 5.13656 5.75 9 5.75ZM2.25 12.125V10.8059C3.015 11.3478 4.03969 11.7847 5.25 12.0781V14.2691C3.41344 13.7562 2.25 12.9116 2.25 12.125ZM8.25 16.625V16.2341C8.49656 16.2434 8.74594 16.25 9 16.25C9.36375 16.25 9.71906 16.2378 10.0678 16.2172C10.4552 16.3559 10.8499 16.4736 11.25 16.5697V18.7691C9.41344 18.2562 8.25 17.4116 8.25 16.625ZM12.75 19.0859V16.85C13.4958 16.9503 14.2475 17.0004 15 17C15.7523 17.0011 16.504 16.9528 17.25 16.8556V19.0859C15.758 19.3047 14.242 19.3047 12.75 19.0859ZM18.75 18.7691V16.5781C19.9603 16.2847 20.985 15.8478 21.75 15.3059V16.625C21.75 17.4116 20.5866 18.2562 18.75 18.7691Z" fill="#222222"/>
</svg>
