<svg width="24" height="25" viewBox="0 0 24 25" fill="none" xmlns="http://www.w3.org/2000/svg">
<path d="M21.75 10.25C21.9489 10.25 22.1397 10.171 22.2803 10.0303C22.421 9.88968 22.5 9.69891 22.5 9.5V6.5C22.5 6.10218 22.342 5.72064 22.0607 5.43934C21.7794 5.15804 21.3978 5 21 5H3C2.60218 5 2.22064 5.15804 1.93934 5.43934C1.65804 5.72064 1.5 6.10218 1.5 6.5V9.5C1.5 9.69891 1.57902 9.88968 1.71967 10.0303C1.86032 10.171 2.05109 10.25 2.25 10.25C2.84674 10.25 3.41903 10.4871 3.84099 10.909C4.26295 11.331 4.5 11.9033 4.5 12.5C4.5 13.0967 4.26295 13.669 3.84099 14.091C3.41903 14.5129 2.84674 14.75 2.25 14.75C2.05109 14.75 1.86032 14.829 1.71967 14.9697C1.57902 15.1103 1.5 15.3011 1.5 15.5V18.5C1.5 18.8978 1.65804 19.2794 1.93934 19.5607C2.22064 19.842 2.60218 20 3 20H21C21.3978 20 21.7794 19.842 22.0607 19.5607C22.342 19.2794 22.5 18.8978 22.5 18.5V15.5C22.5 15.3011 22.421 15.1103 22.2803 14.9697C22.1397 14.829 21.9489 14.75 21.75 14.75C21.1533 14.75 20.581 14.5129 20.159 14.091C19.7371 13.669 19.5 13.0967 19.5 12.5C19.5 11.9033 19.7371 11.331 20.159 10.909C20.581 10.4871 21.1533 10.25 21.75 10.25ZM3 16.175C3.84772 16.0029 4.60986 15.543 5.15728 14.8732C5.70471 14.2034 6.00376 13.365 6.00376 12.5C6.00376 11.635 5.70471 10.7966 5.15728 10.1268C4.60986 9.45705 3.84772 8.99714 3 8.825V6.5H8.25V18.5H3V16.175ZM21 16.175V18.5H9.75V6.5H21V8.825C20.1523 8.99714 19.3901 9.45705 18.8427 10.1268C18.2953 10.7966 17.9962 11.635 17.9962 12.5C17.9962 13.365 18.2953 14.2034 18.8427 14.8732C19.3901 15.543 20.1523 16.0029 21 16.175Z" fill="#222222"/>
</svg>
