<svg width="24" height="25" viewBox="0 0 24 25" fill="none" xmlns="http://www.w3.org/2000/svg">
<path d="M20.25 9.50002C20.2508 8.10971 19.9003 6.74173 19.2309 5.52316C18.5616 4.30459 17.5951 3.27495 16.4213 2.52986C15.2475 1.78478 13.9044 1.34842 12.5168 1.26132C11.1293 1.17423 9.74217 1.43921 8.48441 2.03167C7.22665 2.62413 6.13901 3.52484 5.32253 4.65014C4.50604 5.77545 3.98718 7.08885 3.81415 8.46835C3.64111 9.84785 3.81951 11.2487 4.33278 12.5408C4.84605 13.8329 5.67753 14.9743 6.75 15.8591V23C6.74991 23.1279 6.78253 23.2537 6.84477 23.3655C6.907 23.4772 6.99678 23.5712 7.10558 23.6385C7.21437 23.7057 7.33856 23.7441 7.46634 23.7498C7.59412 23.7555 7.72124 23.7285 7.83563 23.6713L12 21.5938L16.1653 23.676C16.2697 23.7259 16.3842 23.7513 16.5 23.75C16.6989 23.75 16.8897 23.671 17.0303 23.5303C17.171 23.3897 17.25 23.1989 17.25 23V15.8591C18.1884 15.0862 18.944 14.1152 19.4627 13.0158C19.9814 11.9163 20.2503 10.7157 20.25 9.50002ZM5.25 9.50002C5.25 8.16499 5.64588 6.85995 6.38758 5.74992C7.12928 4.63989 8.18349 3.77472 9.41689 3.26383C10.6503 2.75294 12.0075 2.61927 13.3169 2.87972C14.6262 3.14017 15.829 3.78304 16.773 4.72705C17.717 5.67105 18.3599 6.87378 18.6203 8.18316C18.8808 9.49253 18.7471 10.8497 18.2362 12.0831C17.7253 13.3165 16.8601 14.3707 15.7501 15.1124C14.6401 15.8541 13.335 16.25 12 16.25C10.2104 16.248 8.49466 15.5362 7.22922 14.2708C5.96378 13.0054 5.25199 11.2896 5.25 9.50002ZM15.75 21.7869L12.3347 20.0797C12.2305 20.0276 12.1156 20.0004 11.9991 20.0004C11.8825 20.0004 11.7676 20.0276 11.6634 20.0797L8.25 21.7869V16.8472C9.41097 17.4406 10.6962 17.75 12 17.75C13.3038 17.75 14.589 17.4406 15.75 16.8472V21.7869ZM12 14.75C13.0384 14.75 14.0534 14.4421 14.9167 13.8652C15.7801 13.2884 16.453 12.4684 16.8504 11.5091C17.2477 10.5498 17.3517 9.49419 17.1491 8.47579C16.9466 7.45739 16.4465 6.52193 15.7123 5.78771C14.9781 5.05348 14.0426 4.55347 13.0242 4.35089C12.0058 4.14832 10.9502 4.25229 9.99091 4.64965C9.0316 5.04701 8.21166 5.71991 7.63479 6.58327C7.05791 7.44663 6.75 8.46166 6.75 9.50002C6.75149 10.8919 7.30509 12.2264 8.28934 13.2107C9.27358 14.1949 10.6081 14.7485 12 14.75ZM12 5.75002C12.7417 5.75002 13.4667 5.96995 14.0834 6.38201C14.7001 6.79406 15.1807 7.37973 15.4646 8.06495C15.7484 8.75018 15.8226 9.50418 15.6779 10.2316C15.5333 10.959 15.1761 11.6272 14.6517 12.1517C14.1272 12.6761 13.459 13.0333 12.7316 13.178C12.0042 13.3227 11.2502 13.2484 10.5649 12.9646C9.87972 12.6807 9.29405 12.2001 8.88199 11.5834C8.46994 10.9667 8.25 10.2417 8.25 9.50002C8.25 8.50545 8.64509 7.55163 9.34835 6.84837C10.0516 6.1451 11.0054 5.75002 12 5.75002Z" fill="#222222"/>
</svg>
