<svg width="24" height="25" viewBox="0 0 24 25" fill="none" xmlns="http://www.w3.org/2000/svg">
<path d="M21.75 9.5C21.7504 9.43027 21.7409 9.36083 21.7219 9.29375L20.3766 4.5875C20.2861 4.27523 20.0971 4.00059 19.8378 3.80459C19.5784 3.60858 19.2626 3.50174 18.9375 3.5H5.0625C4.73741 3.50174 4.4216 3.60858 4.16223 3.80459C3.90287 4.00059 3.71386 4.27523 3.62344 4.5875L2.27906 9.29375C2.2597 9.36079 2.24991 9.43022 2.25 9.5V11C2.25 11.5822 2.38554 12.1563 2.6459 12.6771C2.90625 13.1978 3.28427 13.6507 3.75 14V20.75C3.75 20.9489 3.82902 21.1397 3.96967 21.2803C4.11032 21.421 4.30109 21.5 4.5 21.5H19.5C19.6989 21.5 19.8897 21.421 20.0303 21.2803C20.171 21.1397 20.25 20.9489 20.25 20.75V14C20.7157 13.6507 21.0937 13.1978 21.3541 12.6771C21.6145 12.1563 21.75 11.5822 21.75 11V9.5ZM5.0625 5H18.9375L20.0081 8.75H3.99469L5.0625 5ZM9.75 10.25H14.25V11C14.25 11.5967 14.0129 12.169 13.591 12.591C13.169 13.0129 12.5967 13.25 12 13.25C11.4033 13.25 10.831 13.0129 10.409 12.591C9.98705 12.169 9.75 11.5967 9.75 11V10.25ZM8.25 10.25V11C8.24987 11.3869 8.14996 11.7673 7.95993 12.1043C7.7699 12.4413 7.49617 12.7236 7.16518 12.924C6.83419 13.1244 6.45713 13.236 6.07041 13.2481C5.68369 13.2602 5.30038 13.1724 4.9575 12.9931C4.90533 12.9525 4.84794 12.9191 4.78688 12.8937C4.46913 12.6903 4.20764 12.4103 4.02646 12.0794C3.84527 11.7484 3.7502 11.3773 3.75 11V10.25H8.25ZM18.75 20H5.25V14.675C5.4969 14.7248 5.74813 14.7499 6 14.75C6.58217 14.75 7.15634 14.6145 7.67705 14.3541C8.19776 14.0937 8.6507 13.7157 9 13.25C9.3493 13.7157 9.80224 14.0937 10.323 14.3541C10.8437 14.6145 11.4178 14.75 12 14.75C12.5822 14.75 13.1563 14.6145 13.6771 14.3541C14.1978 14.0937 14.6507 13.7157 15 13.25C15.3493 13.7157 15.8022 14.0937 16.3229 14.3541C16.8437 14.6145 17.4178 14.75 18 14.75C18.2519 14.7499 18.5031 14.7248 18.75 14.675V20ZM19.2122 12.8937C19.1519 12.9191 19.0952 12.9522 19.0434 12.9922C18.7006 13.1716 18.3173 13.2596 17.9305 13.2477C17.5437 13.2357 17.1666 13.1242 16.8355 12.924C16.5044 12.7237 16.2305 12.4414 16.0404 12.1044C15.8502 11.7673 15.7502 11.387 15.75 11V10.25H20.25V11C20.2497 11.3774 20.1545 11.7486 19.9731 12.0795C19.7918 12.4104 19.5301 12.6904 19.2122 12.8937Z" fill="#222222"/>
</svg>
