<svg width="24" height="25" viewBox="0 0 24 25" fill="none" xmlns="http://www.w3.org/2000/svg">
<path d="M17.25 11C17.25 11.1989 17.171 11.3897 17.0303 11.5303C16.8897 11.671 16.6989 11.75 16.5 11.75H10.5C10.3011 11.75 10.1103 11.671 9.96967 11.5303C9.82902 11.3897 9.75 11.1989 9.75 11C9.75 10.8011 9.82902 10.6103 9.96967 10.4697C10.1103 10.329 10.3011 10.25 10.5 10.25H16.5C16.6989 10.25 16.8897 10.329 17.0303 10.4697C17.171 10.6103 17.25 10.8011 17.25 11ZM16.5 13.25H10.5C10.3011 13.25 10.1103 13.329 9.96967 13.4697C9.82902 13.6103 9.75 13.8011 9.75 14C9.75 14.1989 9.82902 14.3897 9.96967 14.5303C10.1103 14.671 10.3011 14.75 10.5 14.75H16.5C16.6989 14.75 16.8897 14.671 17.0303 14.5303C17.171 14.3897 17.25 14.1989 17.25 14C17.25 13.8011 17.171 13.6103 17.0303 13.4697C16.8897 13.329 16.6989 13.25 16.5 13.25ZM21 5V20C21 20.3978 20.842 20.7794 20.5607 21.0607C20.2794 21.342 19.8978 21.5 19.5 21.5H4.5C4.10218 21.5 3.72064 21.342 3.43934 21.0607C3.15804 20.7794 3 20.3978 3 20V5C3 4.60218 3.15804 4.22064 3.43934 3.93934C3.72064 3.65804 4.10218 3.5 4.5 3.5H19.5C19.8978 3.5 20.2794 3.65804 20.5607 3.93934C20.842 4.22064 21 4.60218 21 5ZM4.5 20H6.75V5H4.5V20ZM19.5 20V5H8.25V20H19.5Z" fill="#222222"/>
</svg>
