<svg width="24" height="25" viewBox="0 0 24 25" fill="none" xmlns="http://www.w3.org/2000/svg">
<path d="M13.125 17.375C13.125 17.5975 13.059 17.815 12.9354 18C12.8118 18.185 12.6361 18.3292 12.4305 18.4144C12.225 18.4995 11.9988 18.5218 11.7805 18.4784C11.5623 18.435 11.3618 18.3278 11.2045 18.1705C11.0472 18.0132 10.94 17.8127 10.8966 17.5945C10.8532 17.3762 10.8755 17.15 10.9606 16.9445C11.0458 16.7389 11.19 16.5632 11.375 16.4396C11.56 16.316 11.7775 16.25 12 16.25C12.2984 16.25 12.5845 16.3685 12.7955 16.5795C13.0065 16.7905 13.125 17.0766 13.125 17.375ZM12 7.25C9.93188 7.25 8.25 8.76406 8.25 10.625V11C8.25 11.1989 8.32902 11.3897 8.46967 11.5303C8.61033 11.671 8.80109 11.75 9 11.75C9.19892 11.75 9.38968 11.671 9.53033 11.5303C9.67099 11.3897 9.75 11.1989 9.75 11V10.625C9.75 9.59375 10.7597 8.75 12 8.75C13.2403 8.75 14.25 9.59375 14.25 10.625C14.25 11.6562 13.2403 12.5 12 12.5C11.8011 12.5 11.6103 12.579 11.4697 12.7197C11.329 12.8603 11.25 13.0511 11.25 13.25V14C11.25 14.1989 11.329 14.3897 11.4697 14.5303C11.6103 14.671 11.8011 14.75 12 14.75C12.1989 14.75 12.3897 14.671 12.5303 14.5303C12.671 14.3897 12.75 14.1989 12.75 14V13.9325C14.46 13.6184 15.75 12.2544 15.75 10.625C15.75 8.76406 14.0681 7.25 12 7.25ZM21.75 12.5C21.75 14.4284 21.1782 16.3134 20.1068 17.9168C19.0355 19.5202 17.5127 20.7699 15.7312 21.5078C13.9496 22.2458 11.9892 22.4389 10.0979 22.0627C8.20656 21.6865 6.46928 20.7579 5.10571 19.3943C3.74215 18.0307 2.81355 16.2934 2.43735 14.4021C2.06114 12.5108 2.25422 10.5504 2.99218 8.76884C3.73013 6.98726 4.97982 5.46451 6.58319 4.39317C8.18657 3.32183 10.0716 2.75 12 2.75C14.585 2.75273 17.0634 3.78084 18.8913 5.60872C20.7192 7.43661 21.7473 9.91498 21.75 12.5ZM20.25 12.5C20.25 10.8683 19.7661 9.27325 18.8596 7.91655C17.9531 6.55984 16.6646 5.50242 15.1571 4.87799C13.6497 4.25357 11.9909 4.09019 10.3905 4.40852C8.79017 4.72685 7.32016 5.51259 6.16637 6.66637C5.01259 7.82015 4.22685 9.29016 3.90853 10.8905C3.5902 12.4908 3.75358 14.1496 4.378 15.6571C5.00242 17.1646 6.05984 18.4531 7.41655 19.3596C8.77326 20.2661 10.3683 20.75 12 20.75C14.1873 20.7475 16.2843 19.8775 17.8309 18.3309C19.3775 16.7843 20.2475 14.6873 20.25 12.5Z" fill="#222222"/>
</svg>
