<svg width="20" height="21" viewBox="0 0 20 21" fill="none" xmlns="http://www.w3.org/2000/svg">
<path fill-rule="evenodd" clip-rule="evenodd" d="M10 20.5C15.5228 20.5 20 16.0228 20 10.5C20 4.97715 15.5228 0.5 10 0.5C4.47715 0.5 0 4.97715 0 10.5C0 16.0228 4.47715 20.5 10 20.5ZM8.64456 15.1389C9.26189 15.3796 9.92843 15.5 10.6442 15.5C11.4225 15.5 12.1293 15.3611 12.7646 15.0833C13.3998 14.8056 13.9366 14.4028 14.375 13.875L13.2477 12.7639C12.9077 13.1528 12.5275 13.4444 12.107 13.6389C11.6865 13.8241 11.2302 13.9167 10.7381 13.9167C10.246 13.9167 9.79422 13.8333 9.38267 13.6667C8.98006 13.5 8.62666 13.2639 8.32247 12.9583C8.02722 12.6528 7.79461 12.2917 7.62462 11.875C7.46357 11.4583 7.38305 11 7.38305 10.5C7.38305 10 7.46357 9.54167 7.62462 9.125C7.79461 8.70833 8.02722 8.34722 8.32247 8.04167C8.62666 7.73611 8.98006 7.5 9.38267 7.33333C9.79422 7.16667 10.246 7.08333 10.7381 7.08333C11.2302 7.08333 11.6865 7.18056 12.107 7.375C12.5275 7.56019 12.9077 7.84259 13.2477 8.22222L14.375 7.125C13.9366 6.58796 13.3998 6.18519 12.7646 5.91667C12.1293 5.63889 11.427 5.5 10.6576 5.5C9.9329 5.5 9.26636 5.625 8.65798 5.875C8.04959 6.11574 7.51725 6.46296 7.06097 6.91667C6.60468 7.36111 6.25128 7.88889 6.00077 8.5C5.75026 9.11111 5.625 9.77778 5.625 10.5C5.625 11.2222 5.75026 11.8889 6.00077 12.5C6.25128 13.1111 6.6002 13.6435 7.04755 14.0972C7.50383 14.5417 8.03617 14.8889 8.64456 15.1389Z" fill="#2F265D"/>
</svg>
