<svg width="20" height="21" viewBox="0 0 20 21" fill="none" xmlns="http://www.w3.org/2000/svg">
<path d="M14.1925 10.9423L7.94254 17.1923C7.88447 17.2504 7.81553 17.2964 7.73966 17.3278C7.66379 17.3593 7.58247 17.3755 7.50035 17.3755C7.41823 17.3755 7.33691 17.3593 7.26104 17.3278C7.18517 17.2964 7.11623 17.2504 7.05816 17.1923C7.00009 17.1342 6.95403 17.0653 6.9226 16.9894C6.89117 16.9135 6.875 16.8322 6.875 16.7501C6.875 16.668 6.89117 16.5867 6.9226 16.5108C6.95403 16.4349 7.00009 16.366 7.05816 16.3079L12.8668 10.5001L7.05816 4.69229C6.94088 4.57502 6.875 4.41596 6.875 4.2501C6.875 4.08425 6.94088 3.92519 7.05816 3.80792C7.17544 3.69064 7.3345 3.62476 7.50035 3.62476C7.6662 3.62476 7.82526 3.69064 7.94254 3.80792L14.1925 10.0579C14.2506 10.116 14.2967 10.1849 14.3282 10.2608C14.3597 10.3366 14.3758 10.418 14.3758 10.5001C14.3758 10.5822 14.3597 10.6636 14.3282 10.7394C14.2967 10.8153 14.2506 10.8842 14.1925 10.9423Z" fill="#222222"/>
</svg>
