<svg width="24" height="24" viewBox="0 0 24 24" fill="none" xmlns="http://www.w3.org/2000/svg">
<path d="M17.031 12.5308L9.53104 20.0308C9.46136 20.1005 9.37863 20.1558 9.28759 20.1935C9.19654 20.2312 9.09896 20.2506 9.00042 20.2506C8.90187 20.2506 8.80429 20.2312 8.71324 20.1935C8.6222 20.1558 8.53947 20.1005 8.46979 20.0308C8.40011 19.9611 8.34483 19.8784 8.30712 19.7873C8.26941 19.6963 8.25 19.5987 8.25 19.5002C8.25 19.4016 8.26941 19.304 8.30712 19.213C8.34483 19.122 8.40011 19.0392 8.46979 18.9695L15.4401 12.0002L8.46979 5.0308C8.32906 4.89007 8.25 4.6992 8.25 4.50017C8.25 4.30115 8.32906 4.11028 8.46979 3.96955C8.61052 3.82882 8.80139 3.74976 9.00042 3.74976C9.19944 3.74976 9.39031 3.82882 9.53104 3.96955L17.031 11.4695C17.1008 11.5392 17.1561 11.6219 17.1938 11.713C17.2316 11.804 17.251 11.9016 17.251 12.0002C17.251 12.0987 17.2316 12.1963 17.1938 12.2874C17.1561 12.3784 17.1008 12.4611 17.031 12.5308Z" fill="#888888"/>
</svg>
