<svg width="16" height="17" viewBox="0 0 16 17" fill="none" xmlns="http://www.w3.org/2000/svg">
<path fill-rule="evenodd" clip-rule="evenodd" d="M8 16.5C12.4183 16.5 16 12.9183 16 8.5C16 4.08172 12.4183 0.5 8 0.5C3.58172 0.5 0 4.08172 0 8.5C0 12.9183 3.58172 16.5 8 16.5ZM6.91564 12.2111C7.40951 12.4037 7.94274 12.5 8.51534 12.5C9.13804 12.5 9.70348 12.3889 10.2117 12.1667C10.7198 11.9444 11.1493 11.6222 11.5 11.2L10.5982 10.3111C10.3262 10.6222 10.022 10.8556 9.68558 11.0111C9.34918 11.1593 8.98415 11.2333 8.59049 11.2333C8.19683 11.2333 7.83538 11.1667 7.50613 11.0333C7.18405 10.9 6.90133 10.7111 6.65798 10.4667C6.42178 10.2222 6.23569 9.93333 6.09969 9.6C5.97086 9.26667 5.90644 8.9 5.90644 8.5C5.90644 8.1 5.97086 7.73333 6.09969 7.4C6.23569 7.06667 6.42178 6.77778 6.65798 6.53333C6.90133 6.28889 7.18405 6.1 7.50613 5.96667C7.83538 5.83333 8.19683 5.76667 8.59049 5.76667C8.98415 5.76667 9.34918 5.84444 9.68558 6C10.022 6.14815 10.3262 6.37407 10.5982 6.67778L11.5 5.8C11.1493 5.37037 10.7198 5.04815 10.2117 4.83333C9.70348 4.61111 9.14162 4.5 8.52607 4.5C7.94632 4.5 7.41309 4.6 6.92638 4.8C6.43967 4.99259 6.0138 5.27037 5.64877 5.63333C5.28374 5.98889 5.00102 6.41111 4.80061 6.9C4.6002 7.38889 4.5 7.92222 4.5 8.5C4.5 9.07778 4.6002 9.61111 4.80061 10.1C5.00102 10.5889 5.28016 11.0148 5.63804 11.3778C6.00307 11.7333 6.42894 12.0111 6.91564 12.2111Z" fill="white"/>
</svg>
