<svg width="17" height="17" viewBox="0 0 17 17" fill="none" xmlns="http://www.w3.org/2000/svg">
<g clip-path="url(#clip0_2001_5585)">
<path d="M16.4286 6.80005C16.5801 6.80005 16.7255 6.73985 16.8326 6.63268C16.9398 6.52552 17 6.38017 17 6.22862V3.94291C17 3.6398 16.8796 3.34911 16.6653 3.13478C16.4509 2.92046 16.1602 2.80005 15.8571 2.80005L2.14286 2.80005C1.83975 2.80005 1.54906 2.92046 1.33474 3.13478C1.12041 3.34911 1 3.6398 1 3.94291L1 6.22862C1 6.38017 1.0602 6.52552 1.16737 6.63268C1.27453 6.73985 1.41988 6.80005 1.57143 6.80005C2.02609 6.80005 2.46212 6.98066 2.78361 7.30215C3.1051 7.62364 3.28571 8.05968 3.28571 8.51433C3.28571 8.96899 3.1051 9.40503 2.78361 9.72652C2.46212 10.048 2.02609 10.2286 1.57143 10.2286C1.41988 10.2286 1.27453 10.2888 1.16737 10.396C1.0602 10.5032 1 10.6485 1 10.8L1 13.0858C1 13.3889 1.12041 13.6796 1.33474 13.8939C1.54906 14.1082 1.83975 14.2286 2.14286 14.2286L15.8571 14.2286C16.1602 14.2286 16.4509 14.1082 16.6653 13.8939C16.8796 13.6796 17 13.3889 17 13.0858V10.8C17 10.6485 16.9398 10.5032 16.8326 10.396C16.7255 10.2888 16.5801 10.2286 16.4286 10.2286C15.9739 10.2286 15.5379 10.048 15.2164 9.72652C14.8949 9.40503 14.7143 8.96899 14.7143 8.51433C14.7143 8.05968 14.8949 7.62364 15.2164 7.30215C15.5379 6.98066 15.9739 6.80005 16.4286 6.80005ZM2.14286 11.3143C2.78874 11.1832 3.36941 10.8328 3.7865 10.3225C4.20359 9.81219 4.43144 9.1734 4.43144 8.51433C4.43144 7.85527 4.20359 7.21648 3.7865 6.70619C3.36941 6.19589 2.78874 5.84549 2.14286 5.71433L2.14286 3.94291L6.14286 3.94291L6.14286 13.0858H2.14286L2.14286 11.3143Z" fill="white"/>
</g>
<defs>
<clipPath id="clip0_2001_5585">
<rect width="16" height="16" fill="white" transform="translate(0.666504 0.5)"/>
</clipPath>
</defs>
</svg>
