<svg width="20" height="21" viewBox="0 0 20 21" fill="none" xmlns="http://www.w3.org/2000/svg">
<path fill-rule="evenodd" clip-rule="evenodd" d="M10 20.5C15.5228 20.5 20 16.0228 20 10.5C20 4.97715 15.5228 0.5 10 0.5C4.47715 0.5 0 4.97715 0 10.5C0 16.0228 4.47715 20.5 10 20.5ZM10.6975 5.5H6.875V15.5H8.60045V12.6143H10.6975C11.5204 12.6143 12.2239 12.4714 12.8079 12.1857C13.4007 11.9 13.8564 11.4905 14.175 10.9571C14.4935 10.4238 14.6528 9.79048 14.6528 9.05714C14.6528 8.32381 14.4935 7.69048 14.175 7.15714C13.8564 6.62381 13.4007 6.21429 12.8079 5.92857C12.2239 5.64286 11.5204 5.5 10.6975 5.5ZM8.60045 11.0429H10.6179C11.3789 11.0429 11.9496 10.8714 12.3301 10.5286C12.7194 10.1762 12.9141 9.68571 12.9141 9.05714C12.9141 8.41905 12.7194 7.92857 12.3301 7.58571C11.9496 7.24286 11.3789 7.07143 10.6179 7.07143H8.60045V11.0429Z" fill="#2F265D"/>
</svg>
