<svg width="17" height="17" viewBox="0 0 17 17" fill="none" xmlns="http://www.w3.org/2000/svg">
<path fill-rule="evenodd" clip-rule="evenodd" d="M8.3335 16.5C12.7518 16.5 16.3335 12.9183 16.3335 8.5C16.3335 4.08172 12.7518 0.5 8.3335 0.5C3.91522 0.5 0.333496 4.08172 0.333496 8.5C0.333496 12.9183 3.91522 16.5 8.3335 16.5ZM8.89152 4.5H5.8335V12.5H7.21385V10.1914H8.89152C9.54984 10.1914 10.1126 10.0771 10.5798 9.84857C11.0541 9.62 11.4186 9.29238 11.6735 8.86571C11.9283 8.43905 12.0557 7.93238 12.0557 7.34571C12.0557 6.75905 11.9283 6.25238 11.6735 5.82571C11.4186 5.39905 11.0541 5.07143 10.5798 4.84286C10.1126 4.61429 9.54984 4.5 8.89152 4.5ZM7.21385 8.93429H8.82781C9.43658 8.93429 9.89316 8.79714 10.1975 8.52286C10.509 8.24095 10.6647 7.84857 10.6647 7.34571C10.6647 6.83524 10.509 6.44286 10.1975 6.16857C9.89316 5.89429 9.43658 5.75714 8.82781 5.75714H7.21385V8.93429Z" fill="white"/>
</svg>
