<svg width="20" height="21" viewBox="0 0 20 21" fill="none" xmlns="http://www.w3.org/2000/svg">
<path d="M9.375 17.375C9.375 17.5408 9.30915 17.6997 9.19194 17.8169C9.07473 17.9342 8.91576 18 8.75 18H3.75C3.58424 18 3.42527 17.9342 3.30806 17.8169C3.19085 17.6997 3.125 17.5408 3.125 17.375V3.625C3.125 3.45924 3.19085 3.30027 3.30806 3.18306C3.42527 3.06585 3.58424 3 3.75 3H8.75C8.91576 3 9.07473 3.06585 9.19194 3.18306C9.30915 3.30027 9.375 3.45924 9.375 3.625C9.375 3.79076 9.30915 3.94973 9.19194 4.06694C9.07473 4.18415 8.91576 4.25 8.75 4.25H4.375V16.75H8.75C8.91576 16.75 9.07473 16.8158 9.19194 16.9331C9.30915 17.0503 9.375 17.2092 9.375 17.375ZM17.9422 10.0578L14.8172 6.93281C14.6999 6.81554 14.5409 6.74965 14.375 6.74965C14.2091 6.74965 14.0501 6.81554 13.9328 6.93281C13.8155 7.05009 13.7497 7.20915 13.7497 7.375C13.7497 7.54085 13.8155 7.69991 13.9328 7.81719L15.9914 9.875H8.75C8.58424 9.875 8.42527 9.94085 8.30806 10.0581C8.19085 10.1753 8.125 10.3342 8.125 10.5C8.125 10.6658 8.19085 10.8247 8.30806 10.9419C8.42527 11.0592 8.58424 11.125 8.75 11.125H15.9914L13.9328 13.1828C13.8155 13.3001 13.7497 13.4591 13.7497 13.625C13.7497 13.7909 13.8155 13.9499 13.9328 14.0672C14.0501 14.1845 14.2091 14.2503 14.375 14.2503C14.5409 14.2503 14.6999 14.1845 14.8172 14.0672L17.9422 10.9422C18.0003 10.8841 18.0464 10.8152 18.0779 10.7393C18.1093 10.6635 18.1255 10.5821 18.1255 10.5C18.1255 10.4179 18.1093 10.3365 18.0779 10.2607C18.0464 10.1848 18.0003 10.1159 17.9422 10.0578Z" fill="#DF1519"/>
</svg>
