<svg width="12" height="13" viewBox="0 0 12 13" fill="none" xmlns="http://www.w3.org/2000/svg">
<path d="M10.9833 5.88306L8.87392 7.70322L9.51657 10.4252C9.55203 10.573 9.5429 10.728 9.49033 10.8706C9.43777 11.0131 9.34412 11.1369 9.22123 11.2263C9.09834 11.3157 8.95171 11.3667 8.79987 11.3728C8.64803 11.3789 8.4978 11.3398 8.36813 11.2606L6.00095 9.80368L3.63235 11.2606C3.50271 11.3394 3.35265 11.378 3.20107 11.3717C3.0495 11.3654 2.90318 11.3144 2.78054 11.2251C2.65791 11.1357 2.56444 11.0121 2.5119 10.8698C2.45937 10.7275 2.45012 10.5728 2.48532 10.4252L3.13032 7.70322L1.02095 5.88306C0.906243 5.78392 0.823287 5.65319 0.782439 5.50719C0.741591 5.36119 0.744662 5.20639 0.791267 5.06212C0.837872 4.91786 0.925947 4.79052 1.04449 4.69601C1.16304 4.6015 1.3068 4.54401 1.45782 4.53072L4.22345 4.30759L5.29032 1.72572C5.34807 1.58501 5.44636 1.46465 5.57268 1.37994C5.69901 1.29523 5.84768 1.25 5.99978 1.25C6.15187 1.25 6.30054 1.29523 6.42687 1.37994C6.55319 1.46465 6.65148 1.58501 6.70923 1.72572L7.77563 4.30759L10.5413 4.53072C10.6926 4.54351 10.8368 4.60068 10.9557 4.69506C11.0747 4.78944 11.1632 4.91683 11.2101 5.06127C11.257 5.20571 11.2602 5.36078 11.2194 5.50705C11.1785 5.65332 11.0954 5.78428 10.9805 5.88353L10.9833 5.88306Z" fill="#FFC529"/>
</svg>
