<svg width="14" height="14" viewBox="0 0 14 14" fill="none" xmlns="http://www.w3.org/2000/svg">
<path d="M12.8132 6.28097L10.3523 8.40448L11.102 11.5802C11.1434 11.7526 11.1327 11.9334 11.0714 12.0997C11.0101 12.2661 10.9008 12.4105 10.7575 12.5148C10.6141 12.6191 10.443 12.6785 10.2659 12.6856C10.0887 12.6927 9.91344 12.6472 9.76217 12.5547L7.00045 10.855L4.23709 12.5547C4.08584 12.6466 3.91078 12.6918 3.73394 12.6844C3.5571 12.677 3.38639 12.6175 3.24331 12.5133C3.10024 12.4091 2.99119 12.2649 2.9299 12.0989C2.86861 11.9328 2.85782 11.7524 2.89889 11.5802L3.65139 8.40448L1.19045 6.28097C1.05663 6.16531 0.959851 6.01279 0.912195 5.84246C0.864539 5.67212 0.868121 5.49152 0.922494 5.32321C0.976867 5.1549 1.07962 5.00634 1.21792 4.89608C1.35623 4.78581 1.52395 4.71874 1.70014 4.70323L4.9267 4.44292L6.17139 1.43073C6.23876 1.26657 6.35343 1.12615 6.50081 1.02733C6.6482 0.9285 6.82164 0.875732 6.99909 0.875732C7.17654 0.875732 7.34998 0.9285 7.49736 1.02733C7.64474 1.12615 7.75941 1.26657 7.82678 1.43073L9.07092 4.44292L12.2975 4.70323C12.474 4.71817 12.6422 4.78486 12.781 4.89497C12.9199 5.00508 13.0231 5.1537 13.0778 5.32222C13.1325 5.49073 13.1363 5.67165 13.0886 5.84229C13.041 6.01294 12.944 6.16573 12.8099 6.28152L12.8132 6.28097Z" fill="#DADADA"/>
</svg>
