<svg width="14" height="14" viewBox="0 0 14 14" fill="none" xmlns="http://www.w3.org/2000/svg">
<path d="M9 4C9 3.80222 9.05865 3.60888 9.16853 3.44443C9.27841 3.27998 9.43459 3.15181 9.61732 3.07612C9.80004 3.00043 10.0011 2.98063 10.1951 3.01921C10.3891 3.0578 10.5673 3.15304 10.7071 3.29289C10.847 3.43275 10.9422 3.61093 10.9808 3.80491C11.0194 3.99889 10.9996 4.19996 10.9239 4.38268C10.8482 4.56541 10.72 4.72159 10.5556 4.83147C10.3911 4.94135 10.1978 5 10 5C9.73478 5 9.48043 4.89464 9.29289 4.70711C9.10536 4.51957 9 4.26522 9 4ZM13.5 1.75V12.25C13.5 12.5815 13.3683 12.8995 13.1339 13.1339C12.8995 13.3683 12.5815 13.5 12.25 13.5H1.75C1.41848 13.5 1.10054 13.3683 0.866117 13.1339C0.631696 12.8995 0.5 12.5815 0.5 12.25V1.75C0.5 1.41848 0.631696 1.10054 0.866117 0.866117C1.10054 0.631696 1.41848 0.5 1.75 0.5H12.25C12.5815 0.5 12.8995 0.631696 13.1339 0.866117C13.3683 1.10054 13.5 1.41848 13.5 1.75ZM12 2H2V12H12V2ZM7.71937 6.71938L6.71938 7.71937C6.57848 7.86027 6.49932 8.05137 6.49932 8.25062C6.49932 8.44988 6.57848 8.64098 6.71938 8.78187C6.86027 8.92277 7.05137 9.00193 7.25062 9.00193C7.44988 9.00193 7.64098 8.92277 7.78187 8.78187L8.78187 7.78187C8.92277 7.64098 9.00193 7.44988 9.00193 7.25062C9.00193 7.05137 8.92277 6.86027 8.78187 6.71938C8.64098 6.57848 8.44988 6.49932 8.25062 6.49932C8.05137 6.49932 7.86027 6.57848 7.71937 6.71938ZM6.78188 5.71938C6.7122 5.64946 6.6294 5.59398 6.53824 5.55612C6.44708 5.51827 6.34934 5.49878 6.25063 5.49878C6.15191 5.49878 6.05417 5.51827 5.96301 5.55612C5.87185 5.59398 5.78905 5.64946 5.71938 5.71938L5.21938 6.21938C5.07848 6.36027 4.99932 6.55137 4.99932 6.75063C4.99932 6.94988 5.07848 7.14098 5.21938 7.28187C5.36027 7.42277 5.55137 7.50193 5.75063 7.50193C5.94988 7.50193 6.14098 7.42277 6.28188 7.28187L6.78188 6.78188C6.85171 6.71212 6.90709 6.62926 6.94484 6.53805C6.98259 6.44684 7.00196 6.34908 7.00184 6.25037C7.00173 6.15165 6.98212 6.05394 6.94416 5.96282C6.9062 5.8717 6.85063 5.78897 6.78062 5.71938H6.78188ZM7 11.25C7.6136 11.2496 8.21984 11.1163 8.7771 10.8595C9.33437 10.6027 9.82946 10.2283 10.2284 9.76209C10.6273 9.29588 10.9207 8.74887 11.0883 8.1586C11.2559 7.56834 11.2938 6.94879 11.1994 6.3425C11.1688 6.14591 11.0614 5.96952 10.9007 5.85213C10.7401 5.73475 10.5394 5.68598 10.3428 5.71656C10.1462 5.74715 9.96983 5.85457 9.85244 6.01521C9.73506 6.17584 9.68629 6.37653 9.71688 6.57312C9.80694 7.14654 9.71325 7.73374 9.44924 8.25066C9.18523 8.76758 8.76442 9.18771 8.24708 9.45089C7.72973 9.71407 7.14237 9.80681 6.56911 9.71582C5.99585 9.62484 5.46607 9.3548 5.05564 8.94436C4.6452 8.53393 4.37516 8.00415 4.28418 7.43089C4.19319 6.85762 4.28593 6.27027 4.54911 5.75292C4.81229 5.23558 5.23242 4.81477 5.74934 4.55076C6.26626 4.28675 6.85346 4.19306 7.42688 4.28312C7.62347 4.31371 7.82416 4.26494 7.98479 4.14756C8.14543 4.03017 8.25285 3.85378 8.28344 3.65719C8.31402 3.4606 8.26525 3.25991 8.14787 3.09927C8.03048 2.93863 7.85409 2.83121 7.6575 2.80063C7.07887 2.71051 6.48785 2.74094 5.92154 2.89003C5.35522 3.03911 4.82583 3.30362 4.36657 3.66696C3.9073 4.0303 3.52809 4.48464 3.25271 5.00146C2.97733 5.51828 2.81173 6.08643 2.76629 6.67028C2.72086 7.25412 2.79658 7.84106 2.98869 8.39426C3.18081 8.94746 3.48517 9.45498 3.8827 9.885C4.28023 10.315 4.76233 10.6582 5.29876 10.8931C5.8352 11.128 6.41439 11.2495 7 11.25Z" fill="#0A9EE8"/>
</svg>
