<svg width="16" height="16" viewBox="0 0 16 16" fill="none" xmlns="http://www.w3.org/2000/svg">
<path d="M1.5 6.5C1.30109 6.5 1.11032 6.42098 0.96967 6.28033C0.829018 6.13968 0.75 5.94891 0.75 5.75C0.75 5.55109 0.829018 5.36032 0.96967 5.21967C1.11032 5.07902 1.30109 5 1.5 5H7.5C7.69891 5 7.88968 4.92098 8.03033 4.78033C8.17098 4.63968 8.25 4.44891 8.25 4.25C8.25 4.05109 8.17098 3.86032 8.03033 3.71967C7.88968 3.57902 7.69891 3.5 7.5 3.5C7.25849 3.50703 7.02891 3.6066 6.85875 3.77813C6.71647 3.90784 6.52975 3.97786 6.33726 3.9737C6.14477 3.96953 5.96126 3.8915 5.82471 3.75576C5.68817 3.62002 5.60906 3.43697 5.60376 3.24451C5.59846 3.05205 5.66738 2.86492 5.79625 2.72187C6.2485 2.26858 6.85975 2.0096 7.5 2C8.09674 2 8.66903 2.23705 9.09099 2.65901C9.51295 3.08097 9.75 3.65326 9.75 4.25C9.75 4.84674 9.51295 5.41903 9.09099 5.84099C8.66903 6.26295 8.09674 6.5 7.5 6.5H1.5ZM13 4.25C12.3589 4.25895 11.7466 4.51798 11.2937 4.97188C11.1649 5.11492 11.096 5.30205 11.1013 5.49451C11.1066 5.68697 11.1857 5.87002 11.3222 6.00576C11.4588 6.1415 11.6423 6.21953 11.8348 6.2237C12.0272 6.22786 12.214 6.15784 12.3562 6.02812C12.527 5.85601 12.7576 5.75639 13 5.75C13.1989 5.75 13.3897 5.82902 13.5303 5.96967C13.671 6.11032 13.75 6.30109 13.75 6.5C13.75 6.69891 13.671 6.88968 13.5303 7.03033C13.3897 7.17098 13.1989 7.25 13 7.25H2C1.80109 7.25 1.61032 7.32902 1.46967 7.46967C1.32902 7.61032 1.25 7.80109 1.25 8C1.25 8.19891 1.32902 8.38968 1.46967 8.53033C1.61032 8.67098 1.80109 8.75 2 8.75H13C13.5967 8.75 14.169 8.51295 14.591 8.09099C15.0129 7.66903 15.25 7.09674 15.25 6.5C15.25 5.90326 15.0129 5.33097 14.591 4.90901C14.169 4.48705 13.5967 4.25 13 4.25ZM9.5 9.5H2.5C2.30109 9.5 2.11032 9.57902 1.96967 9.71967C1.82902 9.86032 1.75 10.0511 1.75 10.25C1.75 10.4489 1.82902 10.6397 1.96967 10.7803C2.11032 10.921 2.30109 11 2.5 11H9.5C9.69891 11 9.88968 11.079 10.0303 11.2197C10.171 11.3603 10.25 11.5511 10.25 11.75C10.25 11.9489 10.171 12.1397 10.0303 12.2803C9.88968 12.421 9.69891 12.5 9.5 12.5C9.25833 12.4929 9.02859 12.3933 8.85812 12.2219C8.79012 12.1464 8.7075 12.0855 8.61526 12.0429C8.52302 12.0003 8.42309 11.977 8.32154 11.9742C8.21998 11.9714 8.11892 11.9892 8.02448 12.0267C7.93004 12.0641 7.84419 12.1204 7.77214 12.192C7.70009 12.2636 7.64334 12.3491 7.60534 12.4433C7.56734 12.5376 7.54888 12.6385 7.55107 12.7401C7.55327 12.8417 7.57608 12.9417 7.61812 13.0342C7.66016 13.1267 7.72055 13.2097 7.79563 13.2781C8.24803 13.7316 8.85953 13.9906 9.5 14C10.0967 14 10.669 13.7629 11.091 13.341C11.5129 12.919 11.75 12.3467 11.75 11.75C11.75 11.1533 11.5129 10.581 11.091 10.159C10.669 9.73705 10.0967 9.5 9.5 9.5Z" fill="#60F1AE"/>
</svg>
